<svg width="16" height="16" viewBox="0 0 16 16" fill="none" xmlns="http://www.w3.org/2000/svg">
<path d="M13.7843 7.91255C13.4811 7.71088 13.1554 7.55402 12.8298 7.44198C12.0887 7.1955 11.6507 6.43363 11.8079 5.67176C11.8753 5.33565 11.909 4.97712 11.8753 4.60739C11.7406 2.70272 10.2022 1.15658 8.29324 1.01093C6.01374 0.842867 4.1048 2.6355 4.1048 4.87628C4.1048 5.14518 4.12726 5.41407 4.18341 5.66056C4.34062 6.42242 3.90267 7.18429 3.16155 7.43078C2.83591 7.54281 2.51027 7.69967 2.20708 7.90134C0.612558 8.96571 0.051113 11.0721 0.882064 12.7975C1.88145 14.859 4.38553 15.5984 6.33938 14.478C6.57519 14.3436 6.78854 14.1867 6.97944 14.0187C7.56335 13.5033 8.43922 13.5033 9.02313 14.0187C9.21403 14.1867 9.42737 14.3436 9.66318 14.478C11.6058 15.5984 14.1211 14.8478 15.1205 12.7975C15.9515 11.0833 15.3788 8.98813 13.7843 7.91255ZM4.38552 13.1448C3.27385 13.1448 2.36429 12.2485 2.36429 11.1281C2.36429 10.0189 3.26262 9.11136 4.38552 9.11136C5.4972 9.11136 6.40676 10.0077 6.40676 11.1281C6.39553 12.2373 5.4972 13.1448 4.38552 13.1448ZM8.00129 6.9042C6.88961 6.9042 5.98006 6.00788 5.98006 4.88749C5.98006 3.7783 6.87838 2.87078 8.00129 2.87078C9.11297 2.87078 10.0225 3.7671 10.0225 4.88749C10.0113 5.99668 9.11297 6.9042 8.00129 6.9042ZM11.6058 13.1448C10.4941 13.1448 9.58459 12.2485 9.58459 11.1281C9.58459 10.0189 10.4829 9.11136 11.6058 9.11136C12.7175 9.11136 13.627 10.0077 13.627 11.1281C13.627 12.2373 12.7175 13.1448 11.6058 13.1448Z" fill="currentColor"/>
</svg>
