<svg width="16" height="16" viewBox="0 0 16 16" fill="none" xmlns="http://www.w3.org/2000/svg">
<g clip-path="url(#clip0_903_2581)">
<path d="M2.74255 10.5329C2.82832 10.7492 2.84742 10.9863 2.79738 11.2136L2.17613 13.1328C2.15611 13.2301 2.16129 13.3309 2.19117 13.4257C2.22105 13.5205 2.27464 13.606 2.34685 13.6743C2.41907 13.7425 2.50753 13.7912 2.60383 13.8157C2.70013 13.8401 2.80109 13.8396 2.89713 13.8141L4.88805 13.2319C5.10255 13.1894 5.32469 13.208 5.52913 13.2856C6.77477 13.8673 8.18585 13.9904 9.51339 13.6331C10.8409 13.2758 11.9996 12.4612 12.785 11.3328C13.5705 10.2045 13.9321 8.83501 13.8062 7.46601C13.6803 6.09701 13.075 4.81646 12.0969 3.85031C11.1189 2.88415 9.83104 2.29446 8.4606 2.1853C7.09017 2.07613 5.72521 2.4545 4.60656 3.25364C3.4879 4.05278 2.68744 5.22134 2.3464 6.55315C2.00536 7.88495 2.14566 9.29441 2.74255 10.5329Z" stroke="currentColor" stroke-width="2" stroke-linecap="round" stroke-linejoin="round"/>
</g>
<defs>
<clipPath id="clip0_903_2581">
<rect width="14" height="14" fill="white" transform="translate(1 1)"/>
</clipPath>
</defs>
</svg>
