<svg width="16" height="16" viewBox="0 0 16 16" fill="none" xmlns="http://www.w3.org/2000/svg">
<path d="M3.86816 8.66235C5.45209 8.66238 6.73622 9.94661 6.73633 11.5305C6.73633 13.1145 5.45216 14.3987 3.86816 14.3987C2.28415 14.3987 1 13.1145 1 11.5305C1.00011 9.94659 2.28421 8.66235 3.86816 8.66235ZM12.1328 8.66235C13.7168 8.66235 15.0009 9.94659 15.001 11.5305C15.001 13.1145 13.7168 14.3987 12.1328 14.3987C10.549 14.3984 9.26562 13.1144 9.26562 11.5305C9.26573 9.94674 10.5491 8.66259 12.1328 8.66235ZM8.00098 1.55005C9.58497 1.55007 10.8691 2.83421 10.8691 4.41821C10.8689 6.00201 9.58483 7.28538 8.00098 7.2854C6.41711 7.2854 5.13305 6.00203 5.13281 4.41821C5.13281 2.8342 6.41696 1.55005 8.00098 1.55005Z" fill="currentColor"/>
</svg>