<svg width="16" height="16" viewBox="0 0 16 16" fill="none" xmlns="http://www.w3.org/2000/svg">
<path d="M9.36983 13.3298H6.62363C6.36582 13.3298 6.16406 13.5316 6.16406 13.7894V14.5404C6.16406 14.7982 6.36582 15 6.62363 15H9.36983C9.62763 15 9.82939 14.7982 9.82939 14.5404V13.7894C9.82939 13.5428 9.62763 13.3298 9.36983 13.3298Z" fill="currentColor"/>
<path d="M9.36983 1H6.62363C6.36582 1 6.16406 1.20176 6.16406 1.45957V2.21057C6.16406 2.46838 6.36582 2.67014 6.62363 2.67014H9.36983C9.62763 2.67014 9.82939 2.46838 9.82939 2.21057V1.45957C9.82939 1.20176 9.62763 1 9.36983 1Z" fill="currentColor"/>
<path d="M12.7455 10.7966L10.8064 12.7358C10.627 12.9151 10.627 13.2065 10.8064 13.3859L11.3444 13.9239C11.5237 14.1033 11.8152 14.1033 11.9945 13.9239L13.9337 11.9848C14.113 11.8054 14.113 11.514 13.9337 11.3346L13.3957 10.7966C13.2163 10.6173 12.9249 10.6173 12.7455 10.7966Z" fill="currentColor"/>
<path d="M4.01896 2.07604L2.07982 4.01519C1.90048 4.19453 1.90048 4.48596 2.07982 4.66531L2.61784 5.20334C2.79719 5.38268 3.08863 5.38268 3.26797 5.20334L5.20713 3.26419C5.38647 3.08484 5.38647 2.79341 5.20713 2.61407L4.66909 2.07604C4.48975 1.89669 4.19831 1.89669 4.01896 2.07604Z" fill="currentColor"/>
<path d="M13.3281 6.62693V9.37312C13.3281 9.63093 13.5299 9.83269 13.7877 9.83269H14.5387C14.7965 9.83269 14.9983 9.63093 14.9983 9.37312V6.62693C14.9983 6.36912 14.7965 6.16736 14.5387 6.16736H13.7877C13.5411 6.16736 13.3281 6.36912 13.3281 6.62693Z" fill="currentColor"/>
<path d="M1 6.62693V9.37312C1 9.63093 1.20176 9.83269 1.45957 9.83269H2.21056C2.46837 9.83269 2.67013 9.63093 2.67013 9.37312V6.62693C2.67013 6.36912 2.46837 6.16736 2.21056 6.16736H1.45957C1.20176 6.16736 1 6.36912 1 6.62693Z" fill="currentColor"/>
<path d="M10.7986 3.25296L12.7377 5.19211C12.9171 5.37145 13.2085 5.37145 13.3879 5.19211L13.9259 4.65408C14.1052 4.47473 14.1052 4.1833 13.9259 4.00396L11.9867 2.06481C11.8074 1.88546 11.516 1.88546 11.3366 2.06481L10.7986 2.60284C10.6192 2.78218 10.6192 3.07361 10.7986 3.25296Z" fill="currentColor"/>
<path d="M2.07982 11.9848L4.01896 13.9239C4.19831 14.1033 4.48975 14.1033 4.66909 13.9239L5.20713 13.3859C5.38647 13.2065 5.38647 12.9151 5.20713 12.7358L3.26797 10.7966C3.08863 10.6173 2.79719 10.6173 2.61784 10.7966L2.07982 11.3346C1.90048 11.514 1.90048 11.8054 2.07982 11.9848Z" fill="currentColor"/>
</svg>
