<svg width="16" height="16" viewBox="0 0 16 16" fill="none" xmlns="http://www.w3.org/2000/svg">
<path fill-rule="evenodd" clip-rule="evenodd" d="M4.5 8C6.43299 8 8 6.43299 8 4.5C8 6.43299 9.56702 8 11.5 8C9.56702 8 8 9.56702 8 11.5C8 9.56702 6.43299 8 4.5 8ZM4.5 8C2.56701 8 1 9.56702 1 11.5C1 13.433 2.56701 15 4.5 15C6.43299 15 8 13.433 8 11.5C8 13.433 9.56702 15 11.5 15C13.433 15 15 13.433 15 11.5C15 9.56702 13.433 8 11.5 8C13.433 8 15 6.43299 15 4.5C15 2.56701 13.433 1 11.5 1C9.56702 1 8 2.56701 8 4.5C8 2.56701 6.43299 1 4.5 1C2.56701 1 1 2.56701 1 4.5C1 6.43299 2.56701 8 4.5 8Z" fill="currentColor"/>
</svg>
