<svg width="16" height="16" viewBox="0 0 16 16" fill="none" xmlns="http://www.w3.org/2000/svg">
<path d="M15 8.84134V7.15865H12.1843C11.8253 7.15865 11.5 6.94551 11.3654 6.60897V6.59775C11.2308 6.26121 11.2981 5.87981 11.5561 5.63301L13.5529 3.63622L12.3638 2.44711L10.367 4.44391C10.109 4.70192 9.72756 4.76923 9.40224 4.63461H9.39103C9.05449 4.5 8.84135 4.17468 8.84135 3.8157V1H7.15865V3.8157C7.15865 4.17468 6.94551 4.5 6.60897 4.63461H6.59776C6.26122 4.76923 5.87981 4.70192 5.63302 4.44391L3.63622 2.44711L2.44712 3.63622L4.4439 5.63301C4.70192 5.89102 4.76923 6.27243 4.63462 6.59775V6.60897C4.5 6.94551 4.17468 7.15865 3.8157 7.15865H1V8.84134H3.8157C4.17468 8.84134 4.5 9.05449 4.63462 9.39102V9.40224C4.76923 9.73878 4.70192 10.1202 4.4439 10.367L2.44712 12.3638L3.63622 13.5529L5.63302 11.5561C5.89103 11.2981 6.27244 11.2308 6.59776 11.3654H6.60897C6.94551 11.5 7.15865 11.8253 7.15865 12.1843V15H8.84135V12.1843C8.84135 11.8253 9.05449 11.5 9.39103 11.3654H9.40224C9.73878 11.2308 10.1202 11.2981 10.367 11.5561L12.3638 13.5529L13.5529 12.3638L11.5561 10.367C11.2981 10.109 11.2308 9.72756 11.3654 9.40224V9.39102C11.5 9.05449 11.8253 8.84134 12.1843 8.84134H15Z" fill="currentColor"/>
</svg>
